HIERARCHY
ROOT Hips
{
	OFFSET -14.64140 90.27770 -84.91600
	CHANNELS 6 Xposition Yposition Zposition Zrotation Xrotation Yrotation
	JOINT Spine
	{
		OFFSET 0.00000 13.20850 -1.60436
		CHANNELS 3 Zrotation Xrotation Yrotation
		JOINT Spine1
		{
			OFFSET 0.00000 8.61716 0.00000
			CHANNELS 3 Zrotation Xrotation Yrotation
			JOINT Spine2
			{
				OFFSET 0.00000 8.61717 0.00000
				CHANNELS 3 Zrotation Xrotation Yrotation
				JOINT Spine3
				{
					OFFSET 0.00000 8.61717 0.00000
					CHANNELS 3 Zrotation Xrotation Yrotation
					JOINT Neck
					{
						OFFSET 0.00000 11.07920 1.10792
						CHANNELS 3 Zrotation Xrotation Yrotation
						JOINT Neck1
						{
							OFFSET 0.00000 7.08032 0.00000
							CHANNELS 3 Zrotation Xrotation Yrotation
							JOINT Head
							{
								OFFSET 0.00000 7.08031 0.00000
								CHANNELS 3 Zrotation Xrotation Yrotation
								End site
								{
									OFFSET 0.00000 0.00000 0.00000
								}
							}
						}
					}
					JOINT RightShoulder
					{
						OFFSET -0.01000 7.91373 5.19711
						CHANNELS 3 Zrotation Xrotation Yrotation
						JOINT RightArm
						{
							OFFSET -18.41580 0.00000 0.00000
							CHANNELS 3 Zrotation Xrotation Yrotation
							JOINT RightForeArm
							{
								OFFSET -29.11090 0.00000 0.00000
								CHANNELS 3 Zrotation Xrotation Yrotation
								JOINT RightHand
								{
									OFFSET -24.65040 0.00000 0.00000
									CHANNELS 3 Zrotation Xrotation Yrotation
									JOINT RightHandThumb1
									{
										OFFSET -5.35114 -0.85590 3.97906
										CHANNELS 3 Zrotation Xrotation Yrotation
										JOINT RightHandThumb2
										{
											OFFSET -4.52789 0.00000 0.00000
											CHANNELS 3 Zrotation Xrotation Yrotation
											JOINT RightHandThumb3
											{
												OFFSET -2.46976 0.00000 0.00000
												CHANNELS 3 Zrotation Xrotation Yrotation
												End site
												{
													OFFSET 0.00000 0.00000 0.00000
												}
											}
										}
									}
									JOINT RightHandIndex1
									{
										OFFSET -14.26970 0.00000 2.88139
										CHANNELS 3 Zrotation Xrotation Yrotation
										JOINT RightHandIndex2
										{
											OFFSET -5.48836 0.00000 0.00000
											CHANNELS 3 Zrotation Xrotation Yrotation
											JOINT RightHandIndex3
											{
												OFFSET -3.01859 0.00000 0.00000
												CHANNELS 3 Zrotation Xrotation Yrotation
												End site
												{
													OFFSET 0.00000 0.00000 0.00000
												}
											}
										}
									}
									JOINT RightHandMiddle1
									{
										OFFSET -14.26970 0.00000 -0.09147
										CHANNELS 3 Zrotation Xrotation Yrotation
										JOINT RightHandMiddle2
										{
											OFFSET -6.17441 0.00000 0.00000
											CHANNELS 3 Zrotation Xrotation Yrotation
											JOINT RightHandMiddle3
											{
												OFFSET -3.56743 0.00000 0.00000
												CHANNELS 3 Zrotation Xrotation Yrotation
												End site
												{
													OFFSET 0.00000 0.00000 0.00000
												}
											}
										}
									}
									JOINT RightHandRing1
									{
										OFFSET -12.69180 0.00000 -3.06433
										CHANNELS 3 Zrotation Xrotation Yrotation
										JOINT RightHandRing2
										{
											OFFSET -5.62556 0.00000 0.00000
											CHANNELS 3 Zrotation Xrotation Yrotation
											JOINT RightHandRing3
											{
												OFFSET -3.56744 0.00000 0.00000
												CHANNELS 3 Zrotation Xrotation Yrotation
												End site
												{
													OFFSET 0.00000 0.00000 0.00000
												}
											}
										}
									}
									JOINT RightHandPinky1
									{
										OFFSET -11.11390 0.00000 -6.03719
										CHANNELS 3 Zrotation Xrotation Yrotation
										JOINT RightHandPinky2
										{
											OFFSET -4.52789 0.00000 0.00000
											CHANNELS 3 Zrotation Xrotation Yrotation
											JOINT RightHandPinky3
											{
												OFFSET -2.46976 0.00000 0.00000
												CHANNELS 3 Zrotation Xrotation Yrotation
												End site
												{
													OFFSET 0.00000 0.00000 0.00000
												}
											}
										}
									}
								}
							}
						}
					}
					JOINT LeftShoulder
					{
						OFFSET 0.01000 7.91373 5.19711
						CHANNELS 3 Zrotation Xrotation Yrotation
						JOINT LeftArm
						{
							OFFSET 18.41580 0.00000 0.00000
							CHANNELS 3 Zrotation Xrotation Yrotation
							JOINT LeftForeArm
							{
								OFFSET 29.11090 0.00000 0.00000
								CHANNELS 3 Zrotation Xrotation Yrotation
								JOINT LeftHand
								{
									OFFSET 24.65040 0.00000 0.00000
									CHANNELS 3 Zrotation Xrotation Yrotation
									JOINT LeftHandThumb1
									{
										OFFSET 5.35114 -0.85590 3.97906
										CHANNELS 3 Zrotation Xrotation Yrotation
										JOINT LeftHandThumb2
										{
											OFFSET 4.52789 0.00000 0.00000
											CHANNELS 3 Zrotation Xrotation Yrotation
											JOINT LeftHandThumb3
											{
												OFFSET 2.46977 0.00000 0.00000
												CHANNELS 3 Zrotation Xrotation Yrotation
												End site
												{
													OFFSET 0.00000 0.00000 0.00000
												}
											}
										}
									}
									JOINT LeftHandIndex1
									{
										OFFSET 14.26970 0.00000 2.88139
										CHANNELS 3 Zrotation Xrotation Yrotation
										JOINT LeftHandIndex2
										{
											OFFSET 5.48836 0.00000 0.00000
											CHANNELS 3 Zrotation Xrotation Yrotation
											JOINT LeftHandIndex3
											{
												OFFSET 3.01859 0.00000 0.00000
												CHANNELS 3 Zrotation Xrotation Yrotation
												End site
												{
													OFFSET 0.00000 0.00000 0.00000
												}
											}
										}
									}
									JOINT LeftHandMiddle1
									{
										OFFSET 14.26970 0.00000 -0.09147
										CHANNELS 3 Zrotation Xrotation Yrotation
										JOINT LeftHandMiddle2
										{
											OFFSET 6.17440 0.00000 0.00000
											CHANNELS 3 Zrotation Xrotation Yrotation
											JOINT LeftHandMiddle3
											{
												OFFSET 3.56744 0.00000 0.00000
												CHANNELS 3 Zrotation Xrotation Yrotation
												End site
												{
													OFFSET 0.00000 0.00000 0.00000
												}
											}
										}
									}
									JOINT LeftHandRing1
									{
										OFFSET 12.69180 0.00000 -3.06433
										CHANNELS 3 Zrotation Xrotation Yrotation
										JOINT LeftHandRing2
										{
											OFFSET 5.62556 0.00000 0.00000
											CHANNELS 3 Zrotation Xrotation Yrotation
											JOINT LeftHandRing3
											{
												OFFSET 3.56744 0.00000 0.00000
												CHANNELS 3 Zrotation Xrotation Yrotation
												End site
												{
													OFFSET 0.00000 0.00000 0.00000
												}
											}
										}
									}
									JOINT LeftHandPinky1
									{
										OFFSET 11.11390 0.00000 -6.03719
										CHANNELS 3 Zrotation Xrotation Yrotation
										JOINT LeftHandPinky2
										{
											OFFSET 4.52789 0.00000 0.00000
											CHANNELS 3 Zrotation Xrotation Yrotation
											JOINT LeftHandPinky3
											{
												OFFSET 2.46976 0.00000 0.00000
												CHANNELS 3 Zrotation Xrotation Yrotation
												End site
												{
													OFFSET 0.00000 0.00000 0.00000
												}
											}
										}
									}
								}
							}
						}
					}
					JOINT pCube4
					{
						OFFSET 0.00000 10.91090 1.10792
						CHANNELS 3 Zrotation Xrotation Yrotation
						End site
						{
							OFFSET 0.00000 0.00000 0.00000
						}
					}
				}
			}
		}
	}
	JOINT RightUpLeg
	{
		OFFSET -9.98441 0.00000 0.00000
		CHANNELS 3 Zrotation Xrotation Yrotation
		JOINT RightLeg
		{
			OFFSET 0.00000 -42.11790 0.00000
			CHANNELS 3 Zrotation Xrotation Yrotation
			JOINT RightFoot
			{
				OFFSET 0.00000 -45.00020 -0.00001
				CHANNELS 3 Zrotation Xrotation Yrotation
				JOINT RightForeFoot
				{
					OFFSET 0.00000 -3.74820 0.00000
					CHANNELS 3 Zrotation Xrotation Yrotation
					JOINT RightToeBase
					{
						OFFSET 0.00000 0.06325 14.43120
						CHANNELS 3 Zrotation Xrotation Yrotation
						End site
						{
							OFFSET 0.00000 0.00000 0.00000
						}
					}
				}
			}
		}
	}
	JOINT LeftUpLeg
	{
		OFFSET 9.98441 0.00000 0.00000
		CHANNELS 3 Zrotation Xrotation Yrotation
		JOINT LeftLeg
		{
			OFFSET 0.00000 -42.11800 0.00000
			CHANNELS 3 Zrotation Xrotation Yrotation
			JOINT LeftFoot
			{
				OFFSET 0.00000 -45.00070 0.00000
				CHANNELS 3 Zrotation Xrotation Yrotation
				JOINT LeftForeFoot
				{
					OFFSET 0.00000 -3.74824 0.00000
					CHANNELS 3 Zrotation Xrotation Yrotation
					JOINT LeftToeBase
					{
						OFFSET 0.00000 0.06325 14.43110
						CHANNELS 3 Zrotation Xrotation Yrotation
						End site
						{
							OFFSET 0.00000 0.00000 0.00000
						}
					}
				}
			}
		}
	}
}
MOTION
Frames: 4
Frame Time: 0.050000
0.02509790582141266 0.02859335601166318 -0.023885209527468282 -0.00808090139828784 -0.015771398662397403 -0.00984824607828439 1.7573813507346292 1.7199839100217147 -1.715295921712249 -0.6651854216219467 3.626303557146431 0.3543263470741608 -0.8048849846091268 -1.3245742770372742 0.8494674943657061 -0.7386621299205774 -0.5552305521148042 -0.3072571494223753 0.13093615694317204 12.024830950450859 -0.9055774309972893 0.40237433440529224 -0.44113020562234384 -2.458397317092678 0.8379969203402531 -16.15672855773815 -0.26882026412343524 -6.931752575288483 2.6895057200511503 -16.588303996565262 77.06604430372951 1.176398485954474 9.00226062806789 -19.161819624339966 7.007333398259892 79.11860535386907 8.058733522557901 0.4171768631501359 3.8423028198147593 4.543418965280375 -0.16956604963195562 -1.5503451739397833 0.025032232206465926 -0.0042986404027210295 -56.2025896391959 0.03690391506580102 -0.04479396974809799 -56.24113186988279 -38.81372795374464 -0.029829354315211398 0.03271817688310732 0.02031105086352128 -0.025394142977746524 -0.02378402132386755 0.013851619001418512 0.004413427075202819 0.03935618741211821 -36.706111902884764 0.029991461041345514 0.028581358865618498 0.04236096216497873 0.0044847642213693166 -0.041682698117312345 0.02144057892262216 -0.03198590693405983 -0.043915927308386435 -19.7092131617987 0.011891270261511494 0.01891853298339148 -0.01867622097991894 0.031291713990485026 -0.02339756145857578 -0.04706506478274169 -0.020631120909435714 0.03573354789866485 24.057838210749438 -0.013079272218142363 0.027862354444303808 28.903319771175127 9.077310265187483e-05 -0.01925372710736691 28.820704872078355 -0.023178297894735904 -0.0006383865414685768 6.625924746205627 1.7750338784103963 14.419136770371047 -75.92439837392321 19.20950457484603 -9.36857112080512 15.144842720445101 4.125782157403245 -57.86545329247827 -15.965092104689854 6.662247831867676 -3.025755411381672 -0.5111369102982419 0.08638970291379511 -8.152395351018 0.024381368157661065 -0.019592654223037666 44.541154259404806 -0.0013374544535455655 -0.038570280134745887 44.541753555661835 12.47884042901978 0.021054278696339995 -0.011759280488226302 0.028019327516786135 0.01671491803551065 0.011443765431638461 0.009429182635716234 -0.008922010937996034 -0.028600744419432538 11.135963916673521 -0.02491894582309653 -0.008482605234705985 -0.049935564306946664 0.006309709374422495 0.017416605314802994 0.010789884578702747 -0.041028826744701964 0.04592548747603236 4.739390009939634 -0.006285609466251562 -0.031866916996998285 -0.04306770290100239 0.017155244803651066 -0.02134779177748275 -0.0395621866203668 -0.043421553701388796 -0.0018986272966784433 -5.628608089704592 -0.048321573353974454 0.03820422114293101 -6.69503407847738 0.0051367631204073845 -0.006368481244191991 -6.738193611963061 0.003439638641655575 0.012194482084988021 -0.008450901261990924 0.024713365888843597 -0.037964715729888285 8.08235162737469 3.508734332333459 -19.250513057827543 -0.00612741535647049 10.430198348864522 0.040084395596983874 -5.596800263625281 -15.626103804421447 3.1866852954866007 -0.0022827465357245615 0.040048599981383076 0.014422719619724036 0.027078228066402713 4.69308977588017 0.03362309141619379 12.42019658020079 -8.218432342154225 6.885230531930629 -0.029598361751474293 46.36629301108962 0.00261094127809371 -4.373547231271924 -14.708066047668659 -3.8470237290447993 -0.03451175929626179 0.03414113804366486 -0.03855281989919039 -0.01811784847859554 -10.71281473899173 0.0017024334447782764 
-0.011080298496130205 0.010650319636388532 -0.012836817052559499 0.026351781789611742 0.04706037714247268 0.04737733017041894 1.4615718511217635 1.6487889198411623 -1.646997977267453 -0.640639272835465 3.6360551158975305 0.35440816316740215 -0.7881714168402743 -1.4693385468568037 0.9298191195633847 -0.7738448459611474 -0.601010952338055 -0.35432741440543564 0.15364283794297445 12.16450524409214 -0.9728819158065045 0.42322966521725836 -0.5260450837317664 -2.571315771073612 0.8615728873298477 -16.128682837650032 -0.20694245000467357 -6.417241933216275 2.5388852294964894 -16.506423791321964 77.12818804797175 0.6306140942664893 8.6936176388819 -19.206457544786485 8.033015155785186 75.26963399505719 9.015681902342491 0.4676022138780069 4.482061385371781 4.512824029963692 -0.13434598817380142 -1.553712272523712 -0.026135077221023432 0.02545533761095406 -56.244698429823224 0.02068353108735297 0.02918771631171159 -56.24925432496991 -38.758801896384924 -0.0022154348504786468 -0.02748007089035683 -0.00047602251392731985 -0.014648435016142755 0.036924194086782214 0.021078258566838984 -0.018760668178812646 0.04167833684922842 -36.71831590588201 -0.049088142005263374 0.017170830831653203 -0.01486228546836257 0.039110002482663456 0.04536224374572711 -0.016599130538018047 -0.026359871690929283 0.007886577637054186 -19.74718612209363 0.04376727268582861 -0.044236519095928226 -0.02763575649476117 0.021246233461543827 0.021349491210903123 -0.014835180512018138 -0.014175410162078827 -0.01873280216608745 24.031586525139932 0.0230987522476211 -0.01923532409218382 28.86611093935746 -0.0034668858986001408 -0.03031150292526259 28.83181737758796 0.020500196868647427 -0.004604652305708156 6.247522299143565 1.68546955341155 14.528611991660782 -76.57808384912228 17.618983410357153 -9.111588631523249 15.442862921432434 6.675514131311668 -55.43669914354945 -17.014438122777285 8.72766170987547 -4.292025160602334 -0.46507216571815824 0.018054207988812437 -8.143979681306439 0.028134560331438126 0.03437348267141115 44.58320927037075 0.03543722702761241 -0.0288848491867964 44.54282929731052 12.420572746513823 -0.010939755702399532 -0.010501808873881125 0.01721018425831206 0.008780492466814768 0.0014505424995146 -0.00890752821044493 -0.012559290449828064 -0.005612666070888312 11.068627280304053 0.02462633197080987 0.014469691358559507 0.04502395995516277 -0.018845564271860904 -0.04383950774221827 -0.013984691817870907 0.017181527264836814 0.012214801540558443 4.782031875293077 0.017939100187539518 -0.04817231155327559 -0.047393230546816226 0.004798419699893202 -0.009750526505921382 0.003551004816549945 0.010868964796289382 0.024913711427606264 -5.558781943580561 0.008473070974943053 -0.04136523003456301 -6.713423181824955 0.015279211074587788 0.00697201349973307 -6.7589367474778355 0.03552627273815655 0.04879986076258788 -0.012233896895223252 -0.014902178499636404 0.03960849383935066 7.998203404979703 3.5062678626549526 -19.213402287660895 -0.006115365255531326 10.416338491034212 0.05119359308019994 -5.610561095942029 -15.66004054450201 3.20104861078196 0.040275628706270473 0.028896610264914253 0.03540844130528066 0.03978566463927141 4.73684908449956 -0.03948295928810204 12.443607213261783 -8.212721475297743 6.847617848535776 -0.028904092332396145 46.415743020577594 0.026789046946414638 -4.283658739834003 -14.790004919192931 -3.8602595236266253 -0.015177565957959986 0.03290619884894966 0.021427131489285087 -0.009199887433347414 -10.771817751223349 0.03135404379838789 
0.010950654599825723 0.020119343246739724 0.0244155307903434 0.04261699610381275 -0.012245222297631732 -0.014932879229069482 0.8766855018741003 1.5593648850963038 -1.5371443447173052 -0.6477619285145406 3.7444726531500963 0.33537761667080135 -0.7857178626899672 -1.446208188509749 0.9341290922580898 -0.7664913733255322 -0.6096974632063397 -0.40463773488349625 0.10507270902190345 12.25331217151815 -0.9268554175498571 0.4498470770373849 -0.5112157867193757 -2.770301807800479 0.8722065103642862 -16.10931260739706 -0.24049344688542362 -5.532551940560407 2.309325699618112 -16.185154547532164 76.74540872890647 1.5243135132534844 8.538658163964243 -19.28508585130802 8.595004151963305 73.68746420521286 10.113391483943646 0.48632198844324726 4.729919332214529 4.52549285967688 -0.1117500008781284 -1.641775737468095 0.03541824930677169 0.00330229883263024 -56.269215092579756 -0.0019071371946901485 0.033512625693349105 -56.23791317860575 -38.74294755772599 0.01571882952198164 0.04222863202744149 0.0205851589963204 -0.02555158015024901 0.0007623484113536408 0.02744698800874174 -0.00345538267691286 0.025766233897310382 -36.72134737224396 -0.045183856381640644 -0.02919291139358156 0.030936593549382423 -0.045891038055458376 -0.005190507415400732 -0.014178073589815089 -0.04776194979225308 0.023638934526013445 -19.781744302953072 0.0038116588705367563 0.0014632853029593721 -0.02265360476453794 0.02276112716312444 -0.019692653817737542 -0.025008770595909943 0.0016374307770916177 -0.006432783624705154 24.06493885836199 -0.008505561447990612 0.021659488769641667 28.87221575542039 0.016165343342209332 -0.004205553198164079 28.868320116723257 -0.04972829472256274 -0.007649762155593648 5.633730915745713 1.5628391003415454 14.515917862688928 -76.87037801024108 16.90616249593271 -8.952627899406963 15.894062050172156 7.747557426449101 -55.902795632559496 -17.985048151013377 10.516645388561358 -5.444869265343146 -0.5054901556984085 0.022171817295792512 -8.1156320330616 0.0030559055959686527 0.02654731121797345 44.58752214125817 -0.027884069926508687 -0.021933720053851975 44.51759857406095 12.437941057027523 0.008610129924557642 -0.04723960463424649 0.0031451829321742925 0.009816620702637094 0.010162074349286449 0.004911002616241553 -0.00928906683342679 -0.013380493987030943 11.0917802957445 -0.02765761562450648 -0.011855651272475391 -0.020327881118626438 0.0077689233325019475 0.005638361867673046 -0.003590487582910021 0.020815495907496023 -0.015617435108681093 4.757364982013953 -0.03313015220724231 0.0038240727874446425 -0.021675428819014766 0.009254460980865242 0.03662581606366914 0.024300648818195093 -0.03409270771188555 -0.02463800988169429 -5.6476628525131405 0.03697548897583086 -0.019132904893258088 -6.757011201058492 -0.02420381595274826 -0.026119077474442774 -6.674799664907698 0.009482744290724076 -0.017403404474264243 -0.010810139100332038 -0.013568862396208128 -0.011759984706390473 8.023597587222282 3.4477060519733205 -19.210351348535916 -0.006489352986073351 10.431751612481145 0.035549557748122226 -5.581021539939075 -15.666711807430673 3.151633213157823 -0.004116099147651932 0.03734794137864372 0.016790129640998113 0.002611552141840544 4.7369556738610665 0.00938184408765017 12.444380302094848 -8.240979738875899 6.896798154207662 -0.026292680282875007 46.371170965939555 -0.04811955340803137 -4.289614684324463 -14.702045227239418 -3.8391937819505935 0.020971886096400345 0.038763434517499994 0.025845691402443017 -0.028167782255780868 -10.69748272326551 0.022964982351024794 
0.04183081642158651 0.016948638572266476 0.019646780226605626 0.02103779171117451 0.029856761636788666 -0.04774307286189994 0.17230345035981864 1.446773244530669 -1.4114968437213598 -0.5993134717158346 3.758174307164757 0.33206487913543187 -0.7872740889424324 -1.6103888075388475 1.011997569491326 -0.7789326173963603 -0.6918052256290361 -0.4153321267654283 0.12938222643010125 12.495627793460152 -0.9362812910737095 0.49853380830499494 -0.5636934352138063 -2.9159797411385124 0.9334792736617381 -15.989479991242014 -0.28300263338913734 -4.327283234412999 1.929548938398131 -15.77751436888528 75.61715189904685 3.49014735569196 8.478102120178812 -18.80372805090936 8.611186827686103 75.14864646077528 11.247315409296196 0.412624637149667 4.741737706867816 4.492354094286601 -0.14071135095487297 -1.5566648447951779 0.018159929599284634 -0.013096466674816025 -56.26521727352045 0.020104568868589228 0.04739285972306151 -56.24977543260137 -38.77671323620995 -0.020119114905886328 0.0015838095559808343 -0.011480953531166363 0.044881820649855624 0.03357640178337298 -0.02204364340173225 -0.02902259681329875 0.0010725245843421014 -36.73078052737855 0.04740361786698678 0.004515018951904422 -0.03159525107161889 0.010517492081161487 -0.008034262694382774 -0.02524305138179271 0.04055473027534864 -0.015580186460308695 -19.719868706814612 0.04221664256740395 -0.0494945761109084 -0.034158934530500916 -0.016759946323905157 -0.030313637668664392 0.007173936931558433 -0.0004178663146791986 0.041486273175790934 24.034322336802 0.03247559361636997 -0.03663801603396034 28.815687865474125 0.002569819576492621 0.04301622090031083 28.87231641186784 -0.007061565818393008 0.01945259493906389 4.945980260083128 1.4277256551310484 14.450915513023775 -76.74398348043353 17.52676257946335 -8.865688787531901 16.572801654136086 6.360836213084583 -59.86418698641541 -18.41034056090846 11.787140015243702 -6.61544608090913 -0.4789087222074329 0.10494333470402732 -8.088537936294893 -0.03543911064666868 0.016612899989595566 44.60789901385013 -0.004817974421770077 -0.024222550509716497 44.55015538137393 12.504030430543297 -0.02181359386670175 -0.0011649161555592868 -0.047356542124903374 0.015522350041871661 -0.012988035233523628 -0.001112837417551209 0.030766613226093472 -0.0027306169380768536 11.139082719365355 -0.002175976900549224 0.03654394544983083 -0.04528983098340523 0.0035614576742371506 -0.005215402325590718 -0.02753501879798552 0.04309861442224517 0.03357876413995095 4.743007306318416 -0.029507166789582696 0.009701813144501945 -0.039039214166661944 0.00048583017374003785 0.01801877633721173 0.03633134706476419 0.039188871594046194 -0.04979870304750652 -5.622791357333366 -0.009006158691413526 -0.03892309415645241 -6.7151277406842835 -0.024233164746887945 -0.015619950439069852 -6.752358769963719 -0.0378289011820706 -0.018642326473576217 0.010768608981405027 -0.013061063556238414 0.03947469694638857 8.011928385555382 3.514414312539003 -19.219381036863233 -0.00899289357149146 10.405669474558902 0.03577194008435469 -5.600474684962812 -15.636873402812151 3.241275454740439 -0.02450096298735734 -0.009000798740476627 -0.009443549859554288 -0.03713317754679939 4.658814246312252 0.03579128951185667 12.469882727606015 -8.28049604048204 6.861824568277687 0.033748289357618456 46.392551538280784 0.005209372743805061 -4.3455039404048295 -14.737502158567205 -3.807729527378299 -0.03763663170877139 0.0008705736561767392 0.021312378452257006 0.009623098434055935 -10.791003613433391 0.03319289076459221 
